<?xml version="1.0" encoding="utf-8"?>
<!-- Generator: Adobe Illustrator 20.1.0, SVG Export Plug-In . SVG Version: 6.00 Build 0)  -->
<svg version="1.1" id="Layer_1" xmlns="http://www.w3.org/2000/svg" xmlns:xlink="http://www.w3.org/1999/xlink" x="0px" y="0px"
	 viewBox="0 0 119.1 110.3" enable-background="new 0 0 119.1 110.3" xml:space="preserve">
<g>
	<g>
		<path d="M91,44c-1.5,0-2.6-1.4-2.6-2.8V29H76.2c-1.4,0-2.8-1.1-2.8-2.6v-1c0-1.5,1.4-2.4,2.8-2.4h12.2V10.6C88.4,9.2,89.5,8,91,8
			h1c1.5,0,2.4,1.2,2.4,2.6V23h12.4c1.4,0,2.6,0.9,2.6,2.4v1c0,1.5-1.2,2.6-2.6,2.6H94.4v12.2c0,1.4-0.9,2.8-2.4,2.8H91z"/>
		<path d="M85.1,98H28.8c-5.2,0-9.4-4.2-9.4-9.4V32.3c0-5.2,4.2-9.4,9.4-9.4H58c2,0,3.6,1.6,3.6,3.6S60,30.1,58,30.1H28.8
			c-1.2,0-2.2,1-2.2,2.2v56.3c0,1.2,1,2.2,2.2,2.2h56.3c1.2,0,2.2-1,2.2-2.2V59.3c0-2,1.6-3.6,3.6-3.6s3.6,1.6,3.6,3.6v29.2
			C94.6,93.8,90.3,98,85.1,98z"/>
	</g>
</g>
</svg>
