<?xml version="1.0" encoding="utf-8"?>
<!-- Generator: Adobe Illustrator 20.1.0, SVG Export Plug-In . SVG Version: 6.00 Build 0)  -->
<svg version="1.1" id="Layer_1" xmlns="http://www.w3.org/2000/svg" xmlns:xlink="http://www.w3.org/1999/xlink" x="0px" y="0px"
	 viewBox="0 0 116.1 80.5" enable-background="new 0 0 116.1 80.5" xml:space="preserve">
<path d="M109,40.9c0,0,0-0.1,0-0.1c0,0,0,0,0-0.1c0,0,0-0.1,0-0.1c0,0,0-0.1,0-0.1c0,0,0,0,0,0c-0.1-0.8-0.5-1.5-1-2.1
	c-3.2-3.8-7-7.1-10.8-10.2c-8.3-6.6-17.8-12.2-28.3-14.4c-6.1-1.3-12.2-1.3-18.3-0.3c-5.5,1-10.9,3.1-15.9,5.6
	c-7.8,4-15,9.5-21.2,15.7c-1.2,1.1-2.3,2.3-3.3,3.6c-1.4,1.7-1.4,3.6,0,5.3c3.2,3.8,7,7.1,10.8,10.2c8.3,6.6,17.8,12.2,28.3,14.4
	c6.1,1.3,12.2,1.3,18.3,0.3c5.5-1,10.9-3.1,15.9-5.6c7.8-4,15-9.5,21.2-15.7c1.2-1.1,2.3-2.3,3.3-3.6c0.6-0.6,0.9-1.3,1-2.1
	c0,0,0,0,0,0c0,0,0-0.1,0-0.1c0,0,0-0.1,0-0.1c0,0,0,0,0-0.1c0,0,0-0.1,0-0.1c0-0.1,0-0.1,0-0.2S109,41,109,40.9z M59,60.4
	c-10.6,0-19.2-8.6-19.2-19.2c0-10.6,8.6-19.2,19.2-19.2s19.2,8.6,19.2,19.2S69.7,60.4,59,60.4z"/>
<circle cx="59" cy="41.1" r="6.4"/>
</svg>
