<?xml version="1.0" encoding="utf-8"?>
<!-- Generator: Adobe Illustrator 20.1.0, SVG Export Plug-In . SVG Version: 6.00 Build 0)  -->
<svg version="1.1" id="Layer_1" xmlns="http://www.w3.org/2000/svg" xmlns:xlink="http://www.w3.org/1999/xlink" x="0px" y="0px"
	 viewBox="0 0 67.8 59.9" enable-background="new 0 0 67.8 59.9" xml:space="preserve">
<g>
	<path d="M59.4,47.8l-15-14.7c1.8-2.8,2.7-6,2.7-9.3c0-9.6-7.8-17.3-17.3-17.3c-9.6,0-17.3,7.8-17.3,17.3c0,9.6,7.8,17.3,17.3,17.3
		c3.7,0,7.2-1.1,10.1-3.3l14.9,14.6c0.6,0.6,1.4,0.9,2.3,0.9c0.9,0,1.7-0.4,2.4-1C60.8,51.2,60.7,49.1,59.4,47.8z M29.8,36.4
		c-6.9,0-12.5-5.6-12.5-12.6s5.6-12.6,12.5-12.6s12.5,5.6,12.5,12.6c0,3.3-1.2,6.3-3.5,8.7C36.4,35,33.2,36.4,29.8,36.4z"/>
</g>
</svg>
